# xmcd CD database file
#
# Track frame offsets:
#	150
#	22926
#	47883
#	71876
#	92045
#	109528
#	131270
#	147021
#	170920
#	190054
#	213130
#	234047
#	254498
#	277607
#	293287
#
# Disc length: 4179 seconds
#
# Revision: 0
# Processed by: cddbd v1.4PL0 Copyright (c) Steve Scherf et al.
# Submitted via: CDex 1.50beta9
#
DISCID=c510510f
DTITLE=Various Artist - Salsa Cubana, Para Pablo De Orán Y Natacha
DYEAR=1900
DGENRE=Salsa
TTITLE0=Cha Cuba - Orquesta Aragon
TTITLE1=Changui Homenaje - Elio Reve Jr.
TTITLE2=Chicha Que Limoná - Charanga Habanera
TTITLE3=Cosas Q' Tiene La Vida - Cesar Pedroso
TTITLE4=Cuida'o Cuida'o - David Álvarez Y Su Jeudo De Manos
TTITLE5=El Sábado Es Sensacional - Sur Caribe
TTITLE6=La Manzana - Carlos Manual Y Su Clan
TTITLE7=Lo Q' Tú Esperabas - Elio Reve Jr.
TTITLE8=La Cabeza Mala - Los Van Van
TTITLE9=Más Nadie Q' El Son - David Álvarez Y Su Juego De Manos
TTITLE10=Mi Mimi - Los Van Van
TTITLE11=Mira Como Da Vuelta El Reloj - Azucar
TTITLE12=Por Teléfono No - Dan Den
TTITLE13=Raca Raca Chan - NG La Banda
TTITLE14=Ya No Hace Falta (Radio Version) - Bamboleo
EXTD=
EXTT0=
EXTT1=
EXTT2=
EXTT3=
EXTT4=
EXTT5=
EXTT6=
EXTT7=
EXTT8=
EXTT9=
EXTT10=
EXTT11=
EXTT12=
EXTT13=
EXTT14=
PLAYORDER=
